<svg xmlns="http://www.w3.org/2000/svg" viewBox="0 0 263.09 117.34"><defs><style>.cls-1{fill:#fff;stroke:#1e1d1a;stroke-miterlimit:10;}</style></defs><g id="Layer_2" data-name="Layer 2"><g id="Layer_1-2" data-name="Layer 1"><path class="cls-1" d="M35.52,90.05a.43.43,0,0,1-.52.27L.8,80a.38.38,0,0,1-.25-.2.45.45,0,0,1,0-.38L22,.79a.41.41,0,0,1,.2-.24.39.39,0,0,1,.2-.05l.12,0,34.2,10.32a.44.44,0,0,1,.27.58l-.49,1.81,0,.06L39.87,74.1a0,0,0,0,0,0,0Z"/><path class="cls-1" d="M216.31,82.83c-5.52,6.08-10.93,9.57-16.46,10.7a17.31,17.31,0,0,0-4.69-3.16c-1.2-.56-3-1.52-5.69-3l-.33-.19a1.51,1.51,0,0,0-.22-.11l-9.56-5.42-1.83-1.06c-4-2.36-7.68-4.53-9.72-5.74,2.22-4.43,5-10.91,6.17-13.57.45,0,1-.11,1.65-.19,11.14,14.2,19.68,15.53,22.44,15.53a6.12,6.12,0,0,0,.85,0,2.11,2.11,0,0,0,1.8-2.36,2.15,2.15,0,0,0-2.35-1.86c-.07,0-7.34.56-17.91-12a74.07,74.07,0,0,0,14.65-4.45A43,43,0,0,0,210.6,44.52C218.46,58.19,223.7,74.69,216.31,82.83Z"/><path class="cls-1" d="M242.46,52.49c-7.06-5.2-11-12.68-18.92-12.88l-14.28-.26A40.09,40.09,0,0,1,193.44,52a71.81,71.81,0,0,1-21.05,5.22,2.11,2.11,0,0,0-1.83,1.3c-.05.11-4.73,11.19-7.43,16.18a2.14,2.14,0,0,0,.77,2.84s5.27,3.17,11.5,6.81c.6.34,1.2.68,1.82,1.05,3.32,1.92,6.74,3.86,9.57,5.42l.1.06,0,0c.14.08.27.16.36.2l.16.09,5.33,3a28.47,28.47,0,0,1,3.68,3.26,2.1,2.1,0,0,0,1.54.67h.23c2.63,3.79,1.87,8.78-2.23,14.52-5.94,8.31-18.92,1.77-19.05,1.71l-.25-.11-19.34-7.06c-1.14-.5-12-5.12-29.52-5.12-6.23,0-9.83,0-11.86,0a24.16,24.16,0,0,0-2.48.12c-1.81-.1-13-1.14-23.43-11.62C88.16,88.69,86.48,87,85,85.44,76.75,77,73.34,73.56,66.12,73.56c-2.78,0-9.81-.29-21.45-.89L60,16.27a104.93,104.93,0,0,0,18.38,1.42c7.89-.17,21.92-3,38.16-6.34,22.86-4.66,48.78-9.94,65.85-9.48,17.44.47,29.27,9.39,34.29,10.36,5.4,1,16.91,3.51,21.27,4.55,10,2.39,18.43,17.27,24,30.63,3.41,8.22-7.87,24.43-13.7,30.71a3.56,3.56,0,0,1-5.28-.2C239.32,72.9,233.35,62.19,242.46,52.49Z"/></g></g></svg>