<svg xmlns="http://www.w3.org/2000/svg" viewBox="0 0 220.36 117.34"><defs><style>.cls-1{fill:#fff;stroke:#1e1d1a;stroke-miterlimit:10;}</style></defs><g id="Layer_2" data-name="Layer 2"><g id="Layer_1-2" data-name="Layer 1"><path class="cls-1" d="M35.52,90.05a.43.43,0,0,1-.52.27L.8,80a.38.38,0,0,1-.25-.2.45.45,0,0,1,0-.38L22,.79a.41.41,0,0,1,.2-.24.39.39,0,0,1,.2-.05l.12,0,34.2,10.32a.44.44,0,0,1,.27.58l-.49,1.81,0,.06L39.87,74.1a0,0,0,0,0,0,0Z"/><path class="cls-1" d="M210.6,44.52c7.86,13.67,13.1,30.17,5.71,38.31-5.52,6.08-10.93,9.57-16.46,10.7a17.31,17.31,0,0,0-4.69-3.16c-1.2-.56-3-1.52-5.69-3l-.33-.19a1.51,1.51,0,0,0-.22-.11l-9.56-5.42-1.83-1.06c-4-2.36-7.68-4.53-9.72-5.74,2.22-4.43,5-10.91,6.17-13.57.45,0,1-.11,1.65-.19,11.14,14.2,19.68,15.53,22.44,15.53a6.12,6.12,0,0,0,.85,0,2.11,2.11,0,0,0,1.8-2.36,2.15,2.15,0,0,0-2.35-1.86c-.07,0-7.34.56-17.91-12a5.12,5.12,0,0,1-1.41-4.07,36.92,36.92,0,0,1-6.66.92,2.11,2.11,0,0,0-1.83,1.3c-.05.11-4.73,11.19-7.43,16.18a2.14,2.14,0,0,0,.77,2.84s5.27,3.17,11.5,6.81c.6.34,1.2.68,1.82,1.05,3.32,1.92,6.74,3.86,9.57,5.42l.1.06,0,0c.14.08.27.16.36.2l.16.09,5.33,3c.36.26,5.37,3.92,5.44,3.92h0c2.63,3.79,1.87,8.78-2.23,14.52-5.94,8.31-18.92,1.77-19.05,1.71l-.25-.11-19.34-7.06c-1.14-.5-12-5.12-29.52-5.12-6.23,0-9.83,0-11.86,0a24.16,24.16,0,0,0-2.48.12c-1.81-.1-13-1.14-23.43-11.62C88.16,88.69,86.48,87,85,85.44,76.75,77,73.34,73.56,66.12,73.56c-2.78,0-9.81-.29-21.45-.89L60,16.27a104.93,104.93,0,0,0,18.38,1.42c7.89-.17,21.92-3,38.16-6.34,17.79-3.63,37.47-7.37,53.33-9C183.1,1,187.44,9.45,187.44,9.45Z"/></g></g></svg>