<?xml version="1.0" encoding="utf-8"?>
<!-- Generator: Adobe Illustrator 27.5.0, SVG Export Plug-In . SVG Version: 6.00 Build 0)  -->
<svg version="1.1" id="Layer_1" xmlns="http://www.w3.org/2000/svg" xmlns:xlink="http://www.w3.org/1999/xlink" x="0px" y="0px"
	 viewBox="0 0 1093.8 781.5" style="enable-background:new 0 0 1093.8 781.5;" xml:space="preserve">
<style type="text/css">
	.st0{fill:#4D4D4D;stroke:#1E1D1A;stroke-width:2;stroke-linecap:round;stroke-linejoin:round;}
	.st1{fill:none;stroke:#1E1D1A;stroke-linecap:round;stroke-linejoin:round;}
	.st2{fill:none;stroke:#1E1D1A;stroke-width:3;stroke-linecap:round;stroke-linejoin:round;}
	.st3{fill:#4D4D4D;stroke:#1E1D1A;stroke-linecap:round;stroke-linejoin:round;}
	.st4{fill:#4D4D4D;}
	.st5{font-family:'HelveticaNeueLTStd-Bd';}
	.st6{font-size:42px;}
	.st7{opacity:0.95;fill:#FFFFFF;stroke:#3A3A3A;stroke-width:0.5;stroke-miterlimit:10;enable-background:new    ;}
	.st8{fill:#4E4E4E;stroke:#1E1D1B;stroke-width:2;stroke-linecap:round;stroke-linejoin:round;}
	.st9{fill:#4E4E4E;stroke:#1E1D1B;stroke-width:0.75;stroke-linecap:round;stroke-linejoin:round;}
</style>
<polygon class="st0" points="290,353.7 1081.5,1 1087.9,16.1 1079.3,20.4 1092.3,50.5 1053.5,132.2 408.3,420.4 322.2,398.9 
	300.7,364.5 295.7,367 "/>
<line class="st1" x1="300.7" y1="364.5" x2="1079.3" y2="20.4"/>
<line class="st2" x1="324" y1="398.1" x2="1092.3" y2="50.5"/>
<polyline class="st3" points="674.7,780.8 674.7,388.1 480.7,388.1 970.6,169.2 974.9,185.6 821.5,330.5 788.1,348.5 788.1,780.8 
	"/>
<text transform="matrix(0.9165 -0.4 0.4 0.9165 610.6112 181.54)" class="st4 st5 st6">Sc</text>
<text transform="matrix(0.9165 -0.4 0.4 0.9165 659.2269 160.3205)" class="st4 st5 st6">r</text>
<text transform="matrix(0.9165 -0.4 0.4 0.9165 674.278 153.7511)" class="st4 st5 st6">een</text>
<g id="Layer_2_00000183226513581522936640000006847646118411794580_">
	<g id="Layer_1-2">
		<rect x="1" y="510.3" class="st7" width="215.9" height="45.6"/>
		<polyline class="st8" points="216.2,780.5 216.2,555.9 157.4,555.9 51.8,555.9 1.2,555.9 1.2,780.5 		"/>
		<polygon class="st8" points="216.9,409.8 179.8,409.8 1,409.8 1,510.3 216.9,510.3 		"/>
	</g>
</g>
<polyline class="st9" points="220.3,780.5 220.3,649.8 216.5,649.8 216.5,780.5 "/>
</svg>
